<?xml version="1.0" encoding="iso-8859-1"?>
<!-- Generator: Adobe Illustrator 18.1.1, SVG Export Plug-In . SVG Version: 6.00 Build 0)  -->
<svg version="1.1" id="Capa_1" xmlns="http://www.w3.org/2000/svg" xmlns:xlink="http://www.w3.org/1999/xlink" x="0px" y="0px"
	 viewBox="0 0 51.057 51.057" style="enable-background:new 0 0 51.057 51.057;" xml:space="preserve">
<g>
	<path d="M49.822,26.054l1.235-2.688H37.591l-3.438-3.108H14.85L9.6,16.446l-1.188-0.253l4.197,4.062H8.413c0,0,0,1.693,6.323,1.47
		c3.007-0.267,5.308,5.983,2.483,5.626c0,0-9.989-0.037-10.842,0.021c-1.632,0.106-3.1,3.093-3.956,5.262
		c-0.06-0.063-0.438-0.12-2.119,0.071c-0.431,0.212-0.274,1.187-0.274,1.187c-0.204,0.588,1.61,0.971,1.61,0.971h39.289
		C40.927,34.856,53.574,27.5,49.822,26.054z M30.021,24.321h-2.675l-4.801-2.562h7.958L30.021,24.321z M31.443,24.507l0.475-2.759
		h1.02l3.252,2.759H31.443z M40.392,25.65c-0.09,0.002-0.183,0.004-0.271,0.008l-1.785-1.615h2.757L40.392,25.65z M43.757,25.62
		c-0.812-0.005-1.692,0.005-2.62,0.019l0.672-1.556h2.619L43.757,25.62z M46.577,25.667c-0.626-0.021-1.323-0.037-2.08-0.044
		l0.686-1.581h2.104L46.577,25.667z M47.302,25.702l0.719-1.66h1.978l-0.843,1.839C48.693,25.801,48.063,25.741,47.302,25.702z"/>
</g>
<g>
</g>
<g>
</g>
<g>
</g>
<g>
</g>
<g>
</g>
<g>
</g>
<g>
</g>
<g>
</g>
<g>
</g>
<g>
</g>
<g>
</g>
<g>
</g>
<g>
</g>
<g>
</g>
<g>
</g>
</svg>
